<?xml version="1.0" encoding="utf-8"?>
<!-- Generator: Adobe Illustrator 27.5.0, SVG Export Plug-In . SVG Version: 6.00 Build 0)  -->
<svg version="1.1" id="图层_1" xmlns="http://www.w3.org/2000/svg" xmlns:xlink="http://www.w3.org/1999/xlink" x="0px" y="0px"
	 viewBox="0 0 768 1152" style="enable-background:new 0 0 768 1152;" xml:space="preserve">
<style type="text/css">
	.st0{fill-rule:evenodd;clip-rule:evenodd;fill:none;}
</style>
<path class="st0" d="M252.35-0.27c85.32,0,170.68,0,256,0c0,83.99,0,168.01,0,252c86.66,0,173.34,0,260,0c0,42.66,0,85.34,0,128
	c-86.66,0-173.34,0-260,0c0,213.31,0,426.69,0,640c86.66,0,173.34,0,260,0c0,44,0,88,0,132c-171.98,0-344.02,0-516,0
	c0-257.31,0-514.69,0-772c-83.99,0-168.01,0-252,0c0-42.66,0-85.34,0-128c83.99,0,168.01,0,252,0
	C252.35,167.74,252.35,83.72,252.35-0.27z"/>
</svg>
