<?xml version="1.0" encoding="utf-8"?>
<!-- Generator: Adobe Illustrator 27.5.0, SVG Export Plug-In . SVG Version: 6.00 Build 0)  -->
<svg version="1.1" id="图层_1" xmlns="http://www.w3.org/2000/svg" xmlns:xlink="http://www.w3.org/1999/xlink" x="0px" y="0px"
	 viewBox="0 0 896 1152" style="enable-background:new 0 0 896 1152;" xml:space="preserve">
<style type="text/css">
	.st0{fill-rule:evenodd;clip-rule:evenodd;fill:none;}
</style>
<path class="st0" d="M0,256c83.99,0,168.01,0,252,0c0,254.64,0,509.36,0,764c42.66,0,85.34,0,128,0c0-254.64,0-509.36,0-764
	c42.66,0,85.34,0,128,0c0,254.64,0,509.36,0,764c42.66,0,85.34,0,128,0c0-254.64,0-509.36,0-764c86.66,0,173.34,0,260,0
	c0,298.64,0,597.36,0,896c-298.64,0-597.36,0-896,0C0,853.36,0,554.64,0,256z"/>
</svg>
