<?xml version="1.0" encoding="utf-8"?>
<!-- Generator: Adobe Illustrator 27.5.0, SVG Export Plug-In . SVG Version: 6.00 Build 0)  -->
<svg version="1.1" id="图层_1" xmlns="http://www.w3.org/2000/svg" xmlns:xlink="http://www.w3.org/1999/xlink" x="0px" y="0px"
	 viewBox="0 0 768 768" style="enable-background:new 0 0 768 768;" xml:space="preserve">
<style type="text/css">
	.st0{fill-rule:evenodd;clip-rule:evenodd;fill:none;}
</style>
<path class="st0" d="M251.94-0.02c85.32,0,170.68,0,256,0c0,83.99,0,168.01,0,252c86.66,0,173.34,0,260,0c0,42.66,0,85.34,0,128
	c-86.66,0-173.34,0-260,0c0,129.32,0,258.68,0,388c-85.32,0-170.68,0-256,0c0-129.32,0-258.68,0-388c-83.99,0-168.01,0-252,0
	c0-42.66,0-85.34,0-128c83.99,0,168.01,0,252,0C251.94,167.99,251.94,83.97,251.94-0.02z"/>
</svg>
