<?xml version="1.0" encoding="utf-8"?>
<!-- Generator: Adobe Illustrator 27.5.0, SVG Export Plug-In . SVG Version: 6.00 Build 0)  -->
<svg version="1.1" id="图层_1" xmlns="http://www.w3.org/2000/svg" xmlns:xlink="http://www.w3.org/1999/xlink" x="0px" y="0px"
	 viewBox="0 0 768 1152" style="enable-background:new 0 0 768 1152;" xml:space="preserve">
<style type="text/css">
	.st0{fill-rule:evenodd;clip-rule:evenodd;fill:#FFFFFF;}
</style>
<polygon class="st0" points="768.35,379.73 768.35,763.73 636.35,763.73 636.35,891.73 508.35,891.73 508.35,1019.73 
	380.35,1019.73 380.35,1151.73 0.35,1151.73 0.35,1019.73 124.35,1019.73 124.35,891.73 252.35,891.73 252.35,763.73 380.35,763.73 
	380.35,635.73 508.35,635.73 508.35,507.73 380.35,507.73 380.35,379.73 252.35,379.73 252.35,251.73 124.35,251.73 124.35,123.73 
	0.35,123.73 0.35,-0.27 380.35,-0.27 380.35,123.73 508.35,123.73 508.35,251.73 636.35,251.73 636.35,379.73 "/>
</svg>
