<?xml version="1.0" encoding="utf-8"?>
<!-- Generator: Adobe Illustrator 27.5.0, SVG Export Plug-In . SVG Version: 6.00 Build 0)  -->
<svg version="1.1" id="图层_1" xmlns="http://www.w3.org/2000/svg" xmlns:xlink="http://www.w3.org/1999/xlink" x="0px" y="0px"
	 viewBox="0 0 1024 1152" style="enable-background:new 0 0 1024 1152;" xml:space="preserve">
<style type="text/css">
	.st0{fill-rule:evenodd;clip-rule:evenodd;fill:#FFFFFF;}
</style>
<path class="st0" d="M0.35-0.27v380h380v-380H0.35z M252.35,251.73h-128v-128h128V251.73z"/>
<polygon class="st0" points="892.35,-0.27 892.35,251.73 764.35,251.73 764.35,507.73 636.35,507.73 636.35,635.73 508.35,635.73 
	508.35,891.73 380.35,891.73 380.35,1151.73 124.35,1151.73 124.35,891.73 252.35,891.73 252.35,635.73 380.35,635.73 
	380.35,507.73 508.35,507.73 508.35,251.73 636.35,251.73 636.35,-0.27 "/>
<path class="st0" d="M636.35,763.73v388h388v-388H636.35z M892.35,1019.73h-128v-128h128V1019.73z"/>
</svg>
