<?xml version="1.0" encoding="utf-8"?>
<!-- Generator: Adobe Illustrator 27.5.0, SVG Export Plug-In . SVG Version: 6.00 Build 0)  -->
<svg version="1.1" id="图层_1" xmlns="http://www.w3.org/2000/svg" xmlns:xlink="http://www.w3.org/1999/xlink" x="0px" y="0px"
	 viewBox="0 0 896 1152" style="enable-background:new 0 0 896 1152;" xml:space="preserve">
<style type="text/css">
	.st0{fill-rule:evenodd;clip-rule:evenodd;fill:#FFFFFF;}
</style>
<polygon class="st0" points="896.35,635.73 896.35,763.73 764.35,763.73 764.35,1019.73 636.35,1019.73 636.35,1151.73 
	124.35,1151.73 124.35,1019.73 0.35,1019.73 0.35,507.73 124.35,507.73 124.35,379.73 0.35,379.73 0.35,123.73 124.35,123.73 
	124.35,-0.27 636.35,-0.27 636.35,123.73 764.35,123.73 764.35,379.73 508.35,379.73 508.35,123.73 252.35,123.73 252.35,379.73 
	508.35,379.73 508.35,507.73 380.35,507.73 380.35,635.73 252.35,635.73 252.35,1019.73 508.35,1019.73 508.35,763.73 
	380.35,763.73 380.35,635.73 508.35,635.73 508.35,507.73 764.35,507.73 764.35,635.73 "/>
</svg>
