<?xml version="1.0" encoding="utf-8"?>
<!-- Generator: Adobe Illustrator 27.5.0, SVG Export Plug-In . SVG Version: 6.00 Build 0)  -->
<svg version="1.1" id="图层_1" xmlns="http://www.w3.org/2000/svg" xmlns:xlink="http://www.w3.org/1999/xlink" x="0px" y="0px"
	 viewBox="0 0 512 1152" style="enable-background:new 0 0 512 1152;" xml:space="preserve">
<style type="text/css">
	.st0{fill-rule:evenodd;clip-rule:evenodd;fill:none;}
</style>
<path class="st0" d="M124.35-0.27c129.32,0,258.68,0,388,0c0,41.33,0,82.67,0,124c-86.66,0-173.34,0-260,0c0,298.64,0,597.36,0,896
	c86.66,0,173.34,0,260,0c0,44,0,88,0,132c-129.32,0-258.68,0-388,0c0-44,0-88,0-132c-41.33,0-82.67,0-124,0c0-298.64,0-597.36,0-896
	c41.33,0,82.67,0,124,0C124.35,82.4,124.35,41.06,124.35-0.27z"/>
</svg>
