<?xml version="1.0" encoding="utf-8"?>
<!-- Generator: Adobe Illustrator 27.5.0, SVG Export Plug-In . SVG Version: 6.00 Build 0)  -->
<svg version="1.1" id="图层_1" xmlns="http://www.w3.org/2000/svg" xmlns:xlink="http://www.w3.org/1999/xlink" x="0px" y="0px"
	 viewBox="0 0 768 1152" style="enable-background:new 0 0 768 1152;" xml:space="preserve">
<style type="text/css">
	.st0{fill-rule:evenodd;clip-rule:evenodd;fill:#FFFFFF;}
</style>
<polygon class="st0" points="252,508 252,636 380,636 380,764 508,764 508,892 636,892 636,1020 768,1020 768,1152 380,1152 
	380,1020 252,1020 252,892 124,892 124,764 0,764 0,380 124,380 124,252 252,252 252,124 380,124 380,0 768,0 768,124 636,124 
	636,252 508,252 508,380 380,380 380,508 "/>
</svg>
