<?xml version="1.0" encoding="utf-8"?>
<!-- Generator: Adobe Illustrator 27.5.0, SVG Export Plug-In . SVG Version: 6.00 Build 0)  -->
<svg version="1.1" id="图层_1" xmlns="http://www.w3.org/2000/svg" xmlns:xlink="http://www.w3.org/1999/xlink" x="0px" y="0px"
	 viewBox="0 0 896 1152" style="enable-background:new 0 0 896 1152;" xml:space="preserve">
<style type="text/css">
	.st0{fill-rule:evenodd;clip-rule:evenodd;fill:none;}
</style>
<path class="st0" d="M-0.3,0.08c83.99,0,168.01,0,252,0c0,41.33,0,82.67,0,124c42.66,0,85.34,0,128,0c0,42.66,0,85.34,0,128
	c42.66,0,85.34,0,128,0c0-42.66,0-85.34,0-128c42.66,0,85.34,0,128,0c0-41.33,0-82.67,0-124c86.66,0,173.34,0,260,0
	c0,383.96,0,768.04,0,1152c-86.66,0-173.34,0-260,0c0-257.31,0-514.69,0-772c-42.66,0-85.34,0-128,0c0,42.66,0,85.34,0,128
	c-42.66,0-85.34,0-128,0c0-42.66,0-85.34,0-128c-42.66,0-85.34,0-128,0c0,257.31,0,514.69,0,772c-83.99,0-168.01,0-252,0
	C-0.3,768.12-0.3,384.04-0.3,0.08z"/>
</svg>
