<?xml version="1.0" encoding="utf-8"?>
<!-- Generator: Adobe Illustrator 27.5.0, SVG Export Plug-In . SVG Version: 6.00 Build 0)  -->
<svg version="1.1" id="图层_1" xmlns="http://www.w3.org/2000/svg" xmlns:xlink="http://www.w3.org/1999/xlink" x="0px" y="0px"
	 viewBox="0 0 768 1152" style="enable-background:new 0 0 768 1152;" xml:space="preserve">
<style type="text/css">
	.st0{fill-rule:evenodd;clip-rule:evenodd;fill:none;}
</style>
<path class="st0" d="M0,256c255.97,0,512.03,0,768,0c0,83.99,0,168.01,0,252c-86.66,0-173.34,0-260,0c0-42.66,0-85.34,0-128
	c-85.32,0-170.68,0-256,0c0,85.32,0,170.68,0,256c171.98,0,344.02,0,516,0c0,171.98,0,344.02,0,516c-255.97,0-512.03,0-768,0
	c0-86.66,0-173.34,0-260c83.99,0,168.01,0,252,0c0,42.66,0,85.34,0,128c85.32,0,170.68,0,256,0c0-85.32,0-170.68,0-256
	c-169.32,0-338.68,0-508,0C0,594.68,0,425.32,0,256z"/>
</svg>
