<?xml version="1.0" encoding="utf-8"?>
<!-- Generator: Adobe Illustrator 27.5.0, SVG Export Plug-In . SVG Version: 6.00 Build 0)  -->
<svg version="1.1" id="图层_1" xmlns="http://www.w3.org/2000/svg" xmlns:xlink="http://www.w3.org/1999/xlink" x="0px" y="0px"
	 viewBox="0 0 896 1152" style="enable-background:new 0 0 896 1152;" xml:space="preserve">
<style type="text/css">
	.st0{fill:#FFFFFF;}
</style>
<polygon class="st0" points="635.7,508.08 635.7,636.08 763.7,636.08 763.7,764.08 895.7,764.08 895.7,1152.08 635.7,1152.08 
	635.7,892.08 507.7,892.08 507.7,764.08 379.7,764.08 379.7,892.08 251.7,892.08 251.7,1152.08 -0.3,1152.08 -0.3,764.08 
	123.7,764.08 123.7,636.08 251.7,636.08 251.7,508.08 123.7,508.08 123.7,380.08 -0.3,380.08 -0.3,0.08 251.7,0.08 251.7,252.08 
	379.7,252.08 379.7,380.08 507.7,380.08 507.7,252.08 635.7,252.08 635.7,0.08 895.7,0.08 895.7,380.08 763.7,380.08 763.7,508.08 
	"/>
</svg>
